<svg xmlns="http://www.w3.org/2000/svg" width="67" height="57" viewBox="0 0 67 57">
  <defs>
    <style>
      .cls-1 {
        fill-rule: evenodd;
      }
    </style>
  </defs>
  <path class="cls-1" d="M465.31,753.554l-1.735-6.949a1.05,1.05,0,0,0,.83-1.027v-1.12A4.414,4.414,0,0,0,460,740.046h-7.9v-2.311a2.171,2.171,0,0,0-2.168-2.17H435.233l8.93-3.577a1.05,1.05,0,0,0-.779-1.95l-7.312,2.928a24.674,24.674,0,0,0,5.272-4.108,4.888,4.888,0,1,0-7.77-5.933c-1.194,1.567-2.769,5.971-3.788,9.074-1.019-3.1-2.594-7.507-3.788-9.074a4.888,4.888,0,1,0-7.77,5.933,24.674,24.674,0,0,0,5.272,4.108l-7.312-2.928a1.05,1.05,0,0,0-.779,1.95l8.93,3.577H409.644a2.171,2.171,0,0,0-2.168,2.17v19.047a1.049,1.049,0,1,0,2.1,0V737.735a0.07,0.07,0,0,1,.07-0.07h40.284a0.071,0.071,0,0,1,.07.07v19.048a1.049,1.049,0,1,0,2.1,0v-1.191h12.381a3.433,3.433,0,0,1,3.26,2.381h-3.262a1.05,1.05,0,0,0-1.049,1.05v2.241a3.292,3.292,0,0,0,3.287,3.291H467.9v4.622h-2.743a6.639,6.639,0,0,0-12.558,0h-0.5v-7.913a1.049,1.049,0,1,0-2.1,0v7.913H428.232a6.639,6.639,0,0,0-12.558,0h-6.03a0.07,0.07,0,0,1-.07-0.07V766.8h4.546a1.051,1.051,0,0,0,0-2.1H404.049a1.051,1.051,0,0,0,0,2.1h3.427v2.311a2.172,2.172,0,0,0,2.168,2.171h5.667c0,0.023,0,.046,0,0.07a6.644,6.644,0,1,0,13.288,0c0-.024,0-0.047,0-0.07h23.643c0,0.023,0,.046,0,0.07a6.644,6.644,0,1,0,13.288,0c0-.024,0-0.047,0-0.07h3.429A1.051,1.051,0,0,0,470,770.227v-11.2A5.538,5.538,0,0,0,465.31,753.554ZM425.626,731.82c-4.139-2.575-5.366-3.759-5.729-4.236a2.8,2.8,0,0,1,.526-3.912,2.787,2.787,0,0,1,3.907.527c1.014,1.332,2.6,5.816,3.653,9.047C427.275,732.829,426.461,732.34,425.626,731.82Zm5.963,1.426c1.049-3.231,2.639-7.715,3.653-9.047a2.789,2.789,0,1,1,4.433,3.385c-0.363.477-1.59,1.661-5.728,4.236C433.111,732.34,432.3,732.829,431.589,733.246Zm20.507,8.9H460a2.313,2.313,0,0,1,2.308,2.311v0.07H452.1v-2.381Zm0,11.344v-6.862h9.322l1.713,6.862H452.1ZM421.953,775.9a4.552,4.552,0,1,1,4.546-4.551A4.554,4.554,0,0,1,421.953,775.9Zm36.927,0a4.552,4.552,0,1,1,4.546-4.551A4.554,4.554,0,0,1,458.88,775.9Zm9.022-13.445h-1.189a1.191,1.191,0,0,1-1.189-1.19v-1.191H467.9v2.381h0Zm-45.949,6.723a2.171,2.171,0,1,0,2.168,2.171A2.171,2.171,0,0,0,421.953,769.177Zm36.927,0a2.171,2.171,0,1,0,2.168,2.171A2.171,2.171,0,0,0,458.88,769.177ZM446.571,764.7H430.905a1.051,1.051,0,0,0,0,2.1h15.666A1.051,1.051,0,0,0,446.571,764.7Zm-26.856-4.481H406.287a1.05,1.05,0,0,0,0,2.1h13.428A1.05,1.05,0,0,0,419.715,760.214Zm0-15.686h-4.476a1.05,1.05,0,0,0-1.049,1.05v8.963a1.049,1.049,0,1,0,2.1,0V751.11H418.6a1.051,1.051,0,0,0,0-2.1h-2.308v-2.38h3.427A1.051,1.051,0,0,0,419.715,744.528Zm8.256,7.075a3.851,3.851,0,0,0-2.1-7.075h-2.8a1.05,1.05,0,0,0-1.049,1.05v8.963a1.049,1.049,0,1,0,2.1,0V752.23h1.746l1.927,2.894a1.049,1.049,0,1,0,1.746-1.165Zm-2.1-1.473h-1.748v-3.5h1.748A1.751,1.751,0,0,1,425.869,750.13Zm10.631,3.361h-3.427v-2.384c0.023,0,.046,0,0.07,0h2.238a1.051,1.051,0,0,0,0-2.1h-2.238c-0.024,0-.047,0-0.07,0v-2.384H436.5a1.051,1.051,0,0,0,0-2.1h-4.476a1.05,1.05,0,0,0-1.049,1.05v8.963a1.049,1.049,0,0,0,1.049,1.051H436.5A1.051,1.051,0,0,0,436.5,753.491Zm7.833,0h-3.427V751.11H442.1a1.051,1.051,0,0,0,0-2.1h-1.189v-2.38h3.427a1.051,1.051,0,0,0,0-2.1h-4.476a1.05,1.05,0,0,0-1.049,1.05v8.963a1.049,1.049,0,0,0,1.049,1.051h4.476A1.051,1.051,0,0,0,444.333,753.491Z" transform="translate(-403 -721)"/>
</svg>
