<svg xmlns="http://www.w3.org/2000/svg" width="57" height="46" viewBox="0 0 57 46">
  <defs>
    <style>
      .cls-1 {
        fill-rule: evenodd;
      }
    </style>
  </defs>
  <path id="Forma_1" data-name="Forma 1" class="cls-1" d="M717.445,746.077A1.922,1.922,0,0,0,719,744.191v-2.97c0-.02-0.011-0.038-0.012-0.058a0.962,0.962,0,0,0-.045-0.227,0.674,0.674,0,0,0-.177-0.326c-0.02-.023-0.033-0.052-0.055-0.073a0.941,0.941,0,0,0-.282-0.194l-0.007,0h0l-22.669-9.927a2.823,2.823,0,0,0-3.3.83,3.789,3.789,0,0,1-6.58-1.5,3.951,3.951,0,0,1-.09-1.457,2.807,2.807,0,0,0-1.651-2.953l-4.575-2a3.6,3.6,0,0,0-2.793-.053,23.756,23.756,0,0,0-9.4,6.726,24.564,24.564,0,0,0-5.213,10.454l-0.123.556a0.737,0.737,0,0,0,0,.094,0.9,0.9,0,0,0-.023.115v23.947A3.821,3.821,0,0,0,665.8,769h25.745a1.909,1.909,0,0,0,1.87-1.557,2.842,2.842,0,0,1,5.57,0,1.91,1.91,0,0,0,1.87,1.559H715.2a3.821,3.821,0,0,0,3.8-3.832v-11.59a1.921,1.921,0,0,0-1.547-1.885A2.877,2.877,0,0,1,717.445,746.077ZM668.8,731.25a21.848,21.848,0,0,1,8.653-6.19,1.745,1.745,0,0,1,1.344.026l4.576,2a0.9,0.9,0,0,1,.521.953,5.906,5.906,0,0,0,.132,2.164,5.685,5.685,0,0,0,9.872,2.277,0.936,0.936,0,0,1,1.093-.315l18.486,8.1h-49.33A22.6,22.6,0,0,1,668.8,731.25Zm48.3,22.328v11.59a1.91,1.91,0,0,1-1.9,1.916l-14.356-.034a4.741,4.741,0,0,0-9.3.034H665.8a1.91,1.91,0,0,1-1.9-1.916V742.179h53.184l-0.033,2.024A4.8,4.8,0,0,0,717.1,753.578Zm-9.5,7.759a3.8,3.8,0,1,0,3.8-3.831A3.819,3.819,0,0,0,707.6,761.337Zm5.7,0a1.9,1.9,0,1,1-1.9-1.916A1.908,1.908,0,0,1,713.3,761.337Zm-29.45-12.452a5.747,5.747,0,1,0,5.7,5.747A5.724,5.724,0,0,0,683.85,748.885Zm0,9.578a3.832,3.832,0,1,1,3.8-3.831A3.815,3.815,0,0,1,683.85,758.463Zm14.25-13.41a4.79,4.79,0,1,0,4.75,4.789A4.77,4.77,0,0,0,698.1,745.053Zm0,7.663a2.874,2.874,0,1,1,2.85-2.874A2.862,2.862,0,0,1,698.1,752.716Zm-24.7-2.874a2.85,2.85,0,1,0-2.85,2.874A2.861,2.861,0,0,0,673.4,749.842Zm-3.8,0a0.95,0.95,0,1,1,.95.958A0.954,0.954,0,0,1,669.6,749.842Zm2.85,8.621a2.874,2.874,0,1,0,2.85,2.874A2.866,2.866,0,0,0,672.45,758.463Zm0,3.832a0.958,0.958,0,1,1,.95-0.958A0.954,0.954,0,0,1,672.45,762.3Zm23.474-3.554a0.99,0.99,0,0,0-1.349,0,1.121,1.121,0,0,0-.2.316,0.921,0.921,0,0,0,0,.728,0.862,0.862,0,0,0,.514.517,0.89,0.89,0,0,0,.722,0,1.067,1.067,0,0,0,.313-0.2,0.984,0.984,0,0,0,.276-0.68,0.818,0.818,0,0,0-.076-0.364A1.1,1.1,0,0,0,695.924,758.741ZM685.75,746.969a0.94,0.94,0,0,0,.792-0.422,0.958,0.958,0,0,0,.082-0.9,0.986,0.986,0,0,0-.2-0.316,0.941,0.941,0,0,0-1.035-.2,0.884,0.884,0,0,0-.314.2,1.121,1.121,0,0,0-.2.316,0.952,0.952,0,0,0,.083.9A0.938,0.938,0,0,0,685.75,746.969Zm22.8,4.789a0.935,0.935,0,0,0,.792-0.422,0.957,0.957,0,0,0,.082-0.9,0.934,0.934,0,0,0-1.748,0,0.957,0.957,0,0,0,.082.9A0.94,0.94,0,0,0,708.55,751.758Z" transform="translate(-662 -723)"/>
</svg>
